<?xml version="1.0" encoding="UTF-8" standalone="no"?>
<!-- Created with Inkscape (http://www.inkscape.org/) -->

<svg
   xmlns:dc="http://purl.org/dc/elements/1.1/"
   xmlns:cc="http://creativecommons.org/ns#"
   xmlns:rdf="http://www.w3.org/1999/02/22-rdf-syntax-ns#"
   xmlns:svg="http://www.w3.org/2000/svg"
   xmlns="http://www.w3.org/2000/svg"
   xmlns:sodipodi="http://sodipodi.sourceforge.net/DTD/sodipodi-0.dtd"
   xmlns:inkscape="http://www.inkscape.org/namespaces/inkscape"
   width="600"
   height="600"
   viewBox="0 0 210 297"
   version="1.1"
   id="svg8"
   sodipodi:docname="background.svg"
   inkscape:version="0.92.2 (5c3e80d, 2017-08-06)">
  <defs
     id="defs2" />
  <sodipodi:namedview
     id="base"
     pagecolor="#ffffff"
     bordercolor="#666666"
     borderopacity="1.0"
     inkscape:pageopacity="0.0"
     inkscape:pageshadow="2"
     inkscape:zoom="0.70710678"
     inkscape:cx="380.65154"
     inkscape:cy="245.62461"
     inkscape:document-units="px"
     inkscape:current-layer="layer1"
     showgrid="false"
     units="px"
     showborder="false"
     inkscape:window-width="1920"
     inkscape:window-height="1001"
     inkscape:window-x="-9"
     inkscape:window-y="-9"
     inkscape:window-maximized="1"
     inkscape:lockguides="true" />
  <metadata
     id="metadata5">
    <rdf:RDF>
      <cc:Work
         rdf:about="">
        <dc:format>image/svg+xml</dc:format>
        <dc:type
           rdf:resource="http://purl.org/dc/dcmitype/StillImage" />
        <dc:title></dc:title>
      </cc:Work>
    </rdf:RDF>
  </metadata>
  <g
     inkscape:label="Layer 1"
     inkscape:groupmode="layer"
     id="layer1">
    <g
       id="g5458"
       transform="matrix(1.2084573,0,0,1.2084573,-309.38022,-113.46001)"
       style="stroke-width:0.8275013">
      <path
         style="opacity:1;fill:#3771c8;fill-opacity:1;fill-rule:evenodd;stroke:none;stroke-width:2.4615767;stroke-linecap:round;stroke-linejoin:round;stroke-miterlimit:4;stroke-dasharray:none;stroke-dashoffset:0;stroke-opacity:0.69411765;paint-order:markers fill stroke"
         d="M 220.01562 339.65625 C 302.33464 339.65625 384.65365 339.65625 466.97266 339.65625 C 466.96484 257.38477 466.95703 175.11328 466.94922 92.841797 C 384.63802 92.794271 302.32682 92.746745 220.01562 92.699219 C 220.01563 175.01823 220.01562 257.33724 220.01562 339.65625 z "
         id="rect5449" />
      <path
         inkscape:connector-curvature="0"
         id="path5451"
         d="M 332.54102 119.27344 C 326.91276 153.91146 321.28451 188.54948 315.65625 223.1875 C 366.08724 179.73893 416.51823 136.29036 466.94922 92.841797 C 422.14648 101.65234 377.34375 110.46289 332.54102 119.27344 z M 315.65625 223.1875 C 283.77604 262.01042 251.89583 300.83333 220.01562 339.65625 C 259.36263 329.61393 298.70964 319.57161 338.05664 309.5293 C 330.58984 280.7487 323.12305 251.9681 315.65625 223.1875 z "
         style="fill:#80b3ff;stroke:none;stroke-width:0.21894304px;stroke-linecap:butt;stroke-linejoin:miter;stroke-opacity:1" />
      <path
         style="fill:#4d81ce;fill-opacity:1;stroke:none;stroke-width:0.21894304px;stroke-linecap:butt;stroke-linejoin:miter;stroke-opacity:1"
         d="M 237.23242 235.97656 C 263.3737 231.71354 289.51497 227.45052 315.65625 223.1875 C 283.77604 179.69141 251.89583 136.19531 220.01562 92.699219 C 225.75456 140.45833 231.49349 188.21745 237.23242 235.97656 z M 315.65625 223.1875 C 366.09505 262.01042 416.53385 300.83333 466.97266 339.65625 C 461.78711 299.41341 456.60156 259.17057 451.41602 218.92773 C 406.16276 220.34766 360.90951 221.76758 315.65625 223.1875 z "
         id="path5453"
         inkscape:connector-curvature="0" />
    </g>
  </g>
</svg>
