<?xml version="1.0" encoding="UTF-8" standalone="no"?>
<!-- Created with Inkscape (http://www.inkscape.org/) -->

<svg
   xmlns:dc="http://purl.org/dc/elements/1.1/"
   xmlns:cc="http://creativecommons.org/ns#"
   xmlns:rdf="http://www.w3.org/1999/02/22-rdf-syntax-ns#"
   xmlns:svg="http://www.w3.org/2000/svg"
   xmlns="http://www.w3.org/2000/svg"
   xmlns:sodipodi="http://sodipodi.sourceforge.net/DTD/sodipodi-0.dtd"
   xmlns:inkscape="http://www.inkscape.org/namespaces/inkscape"
   width="300"
   height="300"
   viewBox="0 0 210 297"
   version="1.1"
   id="svg8"
   sodipodi:docname="cookie.svg"
   inkscape:version="0.92.2 (5c3e80d, 2017-08-06)">
  <defs
     id="defs2" />
  <sodipodi:namedview
     id="base"
     pagecolor="#ffffff"
     bordercolor="#666666"
     borderopacity="1.0"
     inkscape:pageopacity="0.0"
     inkscape:pageshadow="2"
     inkscape:zoom="0.90509668"
     inkscape:cx="316.46614"
     inkscape:cy="130.12426"
     inkscape:document-units="px"
     inkscape:current-layer="layer1"
     showgrid="false"
     units="px"
     showborder="false"
     inkscape:window-width="1920"
     inkscape:window-height="1001"
     inkscape:window-x="-9"
     inkscape:window-y="-9"
     inkscape:window-maximized="1" />
  <metadata
     id="metadata5">
    <rdf:RDF>
      <cc:Work
         rdf:about="">
        <dc:format>image/svg+xml</dc:format>
        <dc:type
           rdf:resource="http://purl.org/dc/dcmitype/StillImage" />
        <dc:title />
      </cc:Work>
    </rdf:RDF>
  </metadata>
  <g
     inkscape:label="Layer 1"
     inkscape:groupmode="layer"
     id="layer1">
    <g
       id="g4544"
       transform="matrix(0.94748658,0,0,0.94748434,5.4997061,7.8220904)"
       style="stroke-width:1.05542517">
      <path
         id="path812"
         d="M 101.0274,3.1286814 C 70.408597,3.3716177 39.420842,13.681154 16.300227,34.083494 12.746401,46.066308 11.343506,60.637617 0.33383122,68.45476 -9.3435558,73.327041 -22.21803,75.32637 -27.515989,85.978826 c -10.655002,23.503334 -17.753263,50.422184 -11.225804,76.045864 5.694775,11.71865 15.896343,23.13474 13.574707,37.07691 -3.104488,16.24025 6.483337,31.49789 17.108624,42.88148 15.7041835,18.74838 36.095517,35.74074 60.875381,39.88122 14.32033,1.01452 29.199684,2.96992 41.518115,10.89489 12.121256,4.76066 26.796676,0.63142 34.852886,-9.53833 7.2926,-6.85326 18.02796,-10.09547 27.72562,-6.99198 8.71387,1.81921 18.37278,1.56123 25.81373,-3.87706 8.95394,-4.59518 11.38369,-15.01638 15.05176,-23.50003 8.4883,-14.70427 29.06651,-17.61737 35.7242,-33.76519 5.8529,-14.8614 0.8365,-32.84078 11.16141,-46.12467 9.12983,-14.80291 6.04625,-33.09925 2.51382,-49.12621 -3.02035,-12.12225 -13.524,-20.382968 -17.75836,-31.998981 -3.4673,-6.997588 -1.52577,-15.242485 -5.4327,-22.083126 C 218.11981,54.064549 207.35331,45.867377 197.13734,38.188013 185.38183,31.263408 169.22957,35.82338 159.15296,25.452352 152.96408,18.855925 148.1564,10.390484 139.34159,6.8509884 131.90366,3.6822213 123.58253,4.2742606 115.68134,3.3925844 110.80096,3.1521834 105.91295,3.105818 101.0274,3.1286814 Z"
         style="opacity:1;fill:#b18163;fill-opacity:1;fill-rule:evenodd;stroke:#684848;stroke-width:11.74748421;stroke-linecap:round;stroke-linejoin:round;stroke-miterlimit:4;stroke-dasharray:none;stroke-dashoffset:0;stroke-opacity:1;paint-order:markers fill stroke"
         inkscape:connector-curvature="0" />
      <ellipse
         transform="matrix(0.78367105,-0.62117605,0.62764585,0.778499,0,0)"
         ry="75.99292"
         rx="38.589054"
         cy="169.5182"
         cx="68.198982"
         id="path857"
         style="opacity:1;fill:#c99b7d;fill-opacity:1;fill-rule:evenodd;stroke:none;stroke-width:4.74729538;stroke-linecap:round;stroke-linejoin:round;stroke-miterlimit:4;stroke-dasharray:none;stroke-dashoffset:0;stroke-opacity:0.69411765;paint-order:markers fill stroke" />
      <path
         inkscape:connector-curvature="0"
         id="path853"
         d="m 95.393673,19.62606 c -23.9964,1.663786 -47.816347,10.388829 -66.094609,26.238975 -3.140608,13.6446 -7.062332,31.264213 -22.9206454,35.09631 -9.6009642,2.507478 -17.5996186,9.225516 -19.8531106,19.162885 -7.251661,19.24703 -12.842502,41.40322 -5.039566,61.22005 6.997694,10.95767 13.7280737,23.5513 10.2823998,36.96835 0.9154247,20.11544 17.6887464,34.20838 30.9681942,47.26867 13.507865,12.2018 30.946959,19.6369 49.36703,19.98783 11.01126,0.62289 20.488759,6.49603 30.494634,10.00611 10.98426,2.33501 20.13649,-4.95427 27.24993,-12.18762 9.01794,-6.98157 20.71524,-5.30761 31.02319,-3.27529 12.5143,1.05235 22.50417,-9.07865 25.12653,-20.6722 6.25864,-18.25839 33.53797,-19.60682 35.31584,-40.55614 1.6409,-9.95828 0.82884,-20.5555 5.34367,-29.91452 C 184.7104,170.42688 138.32545,158.25344 112.46041,122.86183 91.637826,94.228879 83.805999,54.710029 96.197206,21.12316 c 0.103552,-0.793846 2.154788,-2.757457 -0.803533,-1.4971 z"
         style="opacity:1;fill:#a56a45;fill-opacity:1;fill-rule:evenodd;stroke:none;stroke-width:4.74721432;stroke-linecap:round;stroke-linejoin:round;stroke-miterlimit:4;stroke-dasharray:none;stroke-dashoffset:0;stroke-opacity:1;paint-order:markers fill stroke" />
      <ellipse
         ry="12.015144"
         rx="11.690263"
         cy="140.26462"
         cx="46.51236"
         id="path859"
         style="opacity:1;fill:#4a3333;fill-opacity:1;fill-rule:evenodd;stroke:none;stroke-width:4.74721432;stroke-linecap:round;stroke-linejoin:round;stroke-miterlimit:4;stroke-dasharray:none;stroke-dashoffset:0;stroke-opacity:0.69411765;paint-order:markers fill stroke" />
      <ellipse
         style="opacity:1;fill:#4a3333;fill-opacity:1;fill-rule:evenodd;stroke:none;stroke-width:4.74721432;stroke-linecap:round;stroke-linejoin:round;stroke-miterlimit:4;stroke-dasharray:none;stroke-dashoffset:0;stroke-opacity:0.69411765;paint-order:markers fill stroke"
         id="ellipse861"
         cx="37.419941"
         cy="212.35548"
         rx="11.690263"
         ry="12.015144" />
      <ellipse
         ry="12.015144"
         rx="11.690263"
         cy="227.94269"
         cx="151.72473"
         id="ellipse863"
         style="opacity:1;fill:#4a3333;fill-opacity:1;fill-rule:evenodd;stroke:none;stroke-width:4.74721432;stroke-linecap:round;stroke-linejoin:round;stroke-miterlimit:4;stroke-dasharray:none;stroke-dashoffset:0;stroke-opacity:0.69411765;paint-order:markers fill stroke" />
      <ellipse
         style="opacity:1;fill:#4a3333;fill-opacity:1;fill-rule:evenodd;stroke:none;stroke-width:4.74721432;stroke-linecap:round;stroke-linejoin:round;stroke-miterlimit:4;stroke-dasharray:none;stroke-dashoffset:0;stroke-opacity:0.69411765;paint-order:markers fill stroke"
         id="ellipse865"
         cx="102.36584"
         cy="181.83052"
         rx="11.690263"
         ry="12.015144" />
      <ellipse
         ry="12.015144"
         rx="11.690263"
         cy="52.586525"
         cx="69.243431"
         id="ellipse867"
         style="opacity:1;fill:#4a3333;fill-opacity:1;fill-rule:evenodd;stroke:none;stroke-width:4.74721432;stroke-linecap:round;stroke-linejoin:round;stroke-miterlimit:4;stroke-dasharray:none;stroke-dashoffset:0;stroke-opacity:0.69411765;paint-order:markers fill stroke" />
      <ellipse
         style="opacity:1;fill:#4a3333;fill-opacity:1;fill-rule:evenodd;stroke:none;stroke-width:4.74721432;stroke-linecap:round;stroke-linejoin:round;stroke-miterlimit:4;stroke-dasharray:none;stroke-dashoffset:0;stroke-opacity:0.69411765;paint-order:markers fill stroke"
         id="ellipse869"
         cx="2.3491554"
         cy="109.73965"
         rx="11.690263"
         ry="12.015144" />
      <ellipse
         ry="12.015144"
         rx="11.690263"
         cy="122.07953"
         cx="196.53741"
         id="ellipse871"
         style="opacity:1;fill:#4a3333;fill-opacity:1;fill-rule:evenodd;stroke:none;stroke-width:4.74721432;stroke-linecap:round;stroke-linejoin:round;stroke-miterlimit:4;stroke-dasharray:none;stroke-dashoffset:0;stroke-opacity:0.69411765;paint-order:markers fill stroke" />
      <ellipse
         style="opacity:1;fill:#4a3333;fill-opacity:1;fill-rule:evenodd;stroke:none;stroke-width:4.74721432;stroke-linecap:round;stroke-linejoin:round;stroke-miterlimit:4;stroke-dasharray:none;stroke-dashoffset:0;stroke-opacity:0.69411765;paint-order:markers fill stroke"
         id="ellipse873"
         cx="138.08609"
         cy="108.44071"
         rx="11.690263"
         ry="12.015144" />
      <ellipse
         ry="12.015144"
         rx="11.690263"
         cy="53.235992"
         cx="154.32257"
         id="ellipse875"
         style="opacity:1;fill:#4a3333;fill-opacity:1;fill-rule:evenodd;stroke:none;stroke-width:4.74721432;stroke-linecap:round;stroke-linejoin:round;stroke-miterlimit:4;stroke-dasharray:none;stroke-dashoffset:0;stroke-opacity:0.69411765;paint-order:markers fill stroke" />
      <ellipse
         style="opacity:1;fill:#4a3333;fill-opacity:1;fill-rule:evenodd;stroke:none;stroke-width:4.74721432;stroke-linecap:round;stroke-linejoin:round;stroke-miterlimit:4;stroke-dasharray:none;stroke-dashoffset:0;stroke-opacity:0.69411765;paint-order:markers fill stroke"
         id="ellipse877"
         cx="108.21098"
         cy="244.17938"
         rx="11.690263"
         ry="12.015144" />
      <ellipse
         ry="12.015144"
         rx="11.690263"
         cy="183.12946"
         cx="197.18687"
         id="ellipse879"
         style="opacity:1;fill:#4a3333;fill-opacity:1;fill-rule:evenodd;stroke:none;stroke-width:4.74721432;stroke-linecap:round;stroke-linejoin:round;stroke-miterlimit:4;stroke-dasharray:none;stroke-dashoffset:0;stroke-opacity:0.69411765;paint-order:markers fill stroke" />
    </g>
  </g>
</svg>
